<svg xmlns="http://www.w3.org/2000/svg" width="1200" height="1000" viewBox="0 0 1200 1000" role="img" aria-labelledby="title desc">
  <title id="title">Simulator spatial error across sequential optimization actions, task consequences, and the planned path to normalized GR00T training data</title>
  <desc id="desc">Panel one: training-side event RMS error falls from 309.6 millimeters for the provisional identity mapping to 17.4 millimeters for the lift-dominant offset candidate, a 94.4 percent reduction across seven staged actions, with a one-time held-out check at 23.5 millimeters under the declared 60 millimeter kinematic-admission threshold. Panel two: selected-piece contact rises from zero to nine of eleven episodes and lift to one of eleven, while full pawn-move success remains zero everywhere. Panel three: the planned pipeline from the frozen workcell candidate through committed receipts, regenerated B-through-G episodes, and a frozen normalized dataset to a GR00T N1.7 fine-tune; only the first stage has working-receipt evidence today.</desc>
  <style>
    :root { color-scheme: light dark; }
    text { font-family: system-ui, -apple-system, "Segoe UI", sans-serif; }
    .bg { fill: #fcfcfb; }
    .grid { stroke: #e1e0d9; stroke-width: 1; }
    .axis { stroke: #c3c2b7; stroke-width: 1; }
    .refline { stroke: #898781; stroke-width: 1; }
    .split-link { stroke: #898781; stroke-width: 1.5; stroke-dasharray: 2 6; fill: none; stroke-linecap: round; }
    .text { fill: #0b0b0b; }
    .text2 { fill: #52514e; }
    .muted { fill: #898781; }
    .phase { fill: #898781; letter-spacing: 0.08em; }
    .committed-line { fill: none; stroke: #2a78d6; stroke-width: 2.5; stroke-linecap: round; stroke-linejoin: round; }
    .working-line { fill: none; stroke: #2a78d6; stroke-width: 2.5; stroke-linecap: round; stroke-linejoin: round; stroke-dasharray: 8 7; }
    .committed-point { fill: #2a78d6; stroke: #fcfcfb; stroke-width: 2; }
    .working-point { fill: #fcfcfb; stroke: #2a78d6; stroke-width: 2.5; }
    .holdout-point { fill: #2a78d6; stroke: #fcfcfb; stroke-width: 2; }
    .bar-contact { fill: #2a78d6; }
    .bar-lift { fill: #008300; }
    .chip { fill: #f0efec; stroke: rgba(11,11,11,0.10); }
    .flow-done { fill: #f0efec; stroke: rgba(11,11,11,0.18); }
    .flow-plan { fill: none; stroke: #898781; stroke-dasharray: 5 4; }
    .arrow { stroke: #898781; stroke-width: 1.5; fill: none; }
    .arrowhead { fill: #898781; }
    @media (prefers-color-scheme: dark) {
      .bg { fill: #1a1a19; }
      .grid { stroke: #2c2c2a; }
      .axis { stroke: #383835; }
      .refline, .split-link { stroke: #898781; }
      .text { fill: #ffffff; }
      .text2 { fill: #c3c2b7; }
      .committed-line, .working-line { stroke: #3987e5; }
      .committed-point { fill: #3987e5; stroke: #1a1a19; }
      .working-point { fill: #1a1a19; stroke: #3987e5; }
      .holdout-point { fill: #3987e5; stroke: #1a1a19; }
      .bar-contact { fill: #3987e5; }
      .chip { fill: #262624; stroke: rgba(255,255,255,0.10); }
      .flow-done { fill: #262624; stroke: rgba(255,255,255,0.18); }
    }
  </style>

  <rect class="bg" width="1200" height="1000" rx="18"/>

  <!-- Header -->
  <text class="text" x="50" y="44" font-size="22" font-weight="600">Sequential simulator spatial-error progression</text>
  <text class="text2" x="50" y="68" font-size="13.5">Training-side event RMS (mm) per optimization action · lower is better</text>
  <text class="text2" x="50" y="86" font-size="13.5">11 replay episodes · 22 gripper close/reopen events</text>

  <rect class="chip" x="702" y="22" width="140" height="66" rx="12"/>
  <text class="muted" x="772" y="45" text-anchor="middle" font-size="11" letter-spacing="0.06em">TOTAL REDUCTION</text>
  <text class="text" x="772" y="74" text-anchor="middle" font-size="24" font-weight="600">94.4%</text>
  <rect class="chip" x="856" y="22" width="140" height="66" rx="12"/>
  <text class="muted" x="926" y="45" text-anchor="middle" font-size="11" letter-spacing="0.06em">HELD-OUT RMS</text>
  <text class="text" x="926" y="74" text-anchor="middle" font-size="24" font-weight="600">23.5 mm</text>
  <rect class="chip" x="1010" y="22" width="140" height="66" rx="12"/>
  <text class="muted" x="1080" y="45" text-anchor="middle" font-size="11" letter-spacing="0.06em">CONTACT</text>
  <text class="text" x="1080" y="74" text-anchor="middle" font-size="24" font-weight="600">0 → 9/11</text>

  <!-- Phase band -->
  <line class="axis" x1="200" y1="118" x2="200" y2="146"/>
  <line class="axis" x1="340" y1="118" x2="340" y2="146"/>
  <line class="axis" x1="1040" y1="118" x2="1040" y2="146"/>
  <text class="phase" x="130" y="136" text-anchor="middle" font-size="12">1 · DIAGNOSE</text>
  <text class="phase" x="270" y="136" text-anchor="middle" font-size="12">2 · FIT + REJECT</text>
  <text class="phase" x="690" y="136" text-anchor="middle" font-size="12">3 · STAGED WORKCELL FIT · BOUNDED, PHYSICALLY INTERPRETABLE</text>
  <text class="phase" x="1110" y="136" text-anchor="middle" font-size="12">HELD-OUT</text>

  <!-- Panel A: RMS progression -->
  <line class="grid" x1="98" y1="160" x2="1150" y2="160"/>
  <line class="grid" x1="98" y1="260" x2="1150" y2="260"/>
  <line class="grid" x1="98" y1="360" x2="1150" y2="360"/>
  <line class="grid" x1="98" y1="460" x2="1150" y2="460"/>
  <line class="axis" x1="98" y1="160" x2="98" y2="560"/>
  <line class="axis" x1="98" y1="560" x2="1150" y2="560"/>

  <text class="muted" x="88" y="165" text-anchor="end" font-size="13">320</text>
  <text class="muted" x="88" y="265" text-anchor="end" font-size="13">240</text>
  <text class="muted" x="88" y="365" text-anchor="end" font-size="13">160</text>
  <text class="muted" x="88" y="465" text-anchor="end" font-size="13">80</text>
  <text class="muted" x="88" y="565" text-anchor="end" font-size="13">0</text>

  <line class="refline" x1="98" y1="485" x2="1150" y2="485"/>
  <text class="muted" x="1148" y="479" text-anchor="end" font-size="12">60 mm kinematic-admission threshold</text>

  <path class="committed-line" d="M130 173 L270 412"/>
  <path class="working-line" d="M270 412 L410 427 L550 448 L690 510 L830 527 L970 538"/>
  <path class="split-link" d="M970 538 L1110 531"/>

  <circle class="committed-point" cx="130" cy="173" r="5.5"/>
  <circle class="committed-point" cx="270" cy="412" r="5.5"/>
  <circle class="working-point" cx="410" cy="427" r="5.5"/>
  <circle class="working-point" cx="550" cy="448" r="5.5"/>
  <circle class="working-point" cx="690" cy="510" r="5.5"/>
  <circle class="working-point" cx="830" cy="527" r="5.5"/>
  <circle class="working-point" cx="970" cy="538" r="5.5"/>
  <path class="holdout-point" d="M1110 522 L1119 531 L1110 540 L1101 531 Z"/>

  <text class="text" x="130" y="156" text-anchor="middle" font-size="16" font-weight="600">309.6</text>
  <text class="text" x="270" y="395" text-anchor="middle" font-size="16" font-weight="600">118.4</text>
  <text class="text" x="410" y="410" text-anchor="middle" font-size="16" font-weight="600">106.7</text>
  <text class="text" x="550" y="431" text-anchor="middle" font-size="16" font-weight="600">89.4</text>
  <text class="text" x="690" y="493" text-anchor="middle" font-size="16" font-weight="600">39.7</text>
  <text class="text" x="830" y="510" text-anchor="middle" font-size="16" font-weight="600">26.1</text>
  <text class="text" x="970" y="524" text-anchor="middle" font-size="16" font-weight="600">17.4</text>
  <text class="text" x="1110" y="514" text-anchor="middle" font-size="16" font-weight="600">23.5</text>

  <!-- Step deltas -->
  <text class="muted" x="270" y="584" text-anchor="middle" font-size="12">−61.7%</text>
  <text class="muted" x="410" y="584" text-anchor="middle" font-size="12">−9.9%</text>
  <text class="muted" x="550" y="584" text-anchor="middle" font-size="12">−16.2%</text>
  <text class="muted" x="690" y="584" text-anchor="middle" font-size="12">−55.6%</text>
  <text class="muted" x="830" y="584" text-anchor="middle" font-size="12">−34.2%</text>
  <text class="muted" x="970" y="584" text-anchor="middle" font-size="12">−33.4%</text>
  <text class="muted" x="1110" y="584" text-anchor="middle" font-size="12">−92.8% vs baseline</text>

  <!-- Step labels: what changed at each action -->
  <text class="text2" x="130" y="606" text-anchor="middle" font-size="13" font-weight="600">1 · Identity</text>
  <text class="muted" x="130" y="623" text-anchor="middle" font-size="12">provisional mapping</text>
  <text class="muted" x="130" y="639" text-anchor="middle" font-size="12">11/11 episodes clip</text>

  <text class="text2" x="270" y="606" text-anchor="middle" font-size="13" font-weight="600">2 · Source adapter</text>
  <text class="muted" x="270" y="623" text-anchor="middle" font-size="12">free signs + offsets</text>
  <text class="muted" x="270" y="639" text-anchor="middle" font-size="12">rejected: implausible</text>

  <text class="text2" x="410" y="606" text-anchor="middle" font-size="13" font-weight="600">3 · Board relabel</text>
  <text class="muted" x="410" y="623" text-anchor="middle" font-size="12">categorical 180° fix</text>
  <text class="muted" x="410" y="639" text-anchor="middle" font-size="12">from C922 view match</text>

  <text class="text2" x="550" y="606" text-anchor="middle" font-size="13" font-weight="600">4 · Planar board fit</text>
  <text class="muted" x="550" y="623" text-anchor="middle" font-size="12">center −11, −66 mm</text>
  <text class="muted" x="550" y="639" text-anchor="middle" font-size="12">yaw 184.9°</text>

  <text class="text2" x="690" y="606" text-anchor="middle" font-size="13" font-weight="600">5 · Joint offsets</text>
  <text class="muted" x="690" y="623" text-anchor="middle" font-size="12">identity signs,</text>
  <text class="muted" x="690" y="639" text-anchor="middle" font-size="12">bounded zero offsets</text>

  <text class="text2" x="830" y="606" text-anchor="middle" font-size="13" font-weight="600">6 · Height + timing</text>
  <text class="muted" x="830" y="623" text-anchor="middle" font-size="12">base-height + reopen</text>
  <text class="muted" x="830" y="639" text-anchor="middle" font-size="12">nuisance terms</text>

  <text class="text2" x="970" y="606" text-anchor="middle" font-size="13" font-weight="600">7 · Lift-dominant</text>
  <text class="muted" x="970" y="623" text-anchor="middle" font-size="12">18.7° shoulder-lift</text>
  <text class="muted" x="970" y="639" text-anchor="middle" font-size="12">offset + board fit</text>

  <text class="text2" x="1110" y="606" text-anchor="middle" font-size="13" font-weight="600">Held-out check</text>
  <text class="muted" x="1110" y="623" text-anchor="middle" font-size="12">frozen candidate,</text>
  <text class="muted" x="1110" y="639" text-anchor="middle" font-size="12">2 sealed episodes</text>

  <!-- Panel B: task consequences -->
  <text class="text" x="50" y="676" font-size="16" font-weight="600">Task consequences under each candidate — spatial fit is necessary, not sufficient</text>
  <text class="text2" x="50" y="696" font-size="13">Fraction of replay episodes · full pawn-move success remains 0 in every configuration</text>
  <rect class="bar-contact" x="905" y="666" width="14" height="14" rx="3"/>
  <text class="text2" x="925" y="678" font-size="13">Selected-piece contact</text>
  <rect class="bar-lift" x="1080" y="666" width="14" height="14" rx="3"/>
  <text class="text2" x="1100" y="678" font-size="13">Lift</text>

  <line class="axis" x1="98" y1="790" x2="1150" y2="790"/>

  <text class="muted" x="130" y="781" text-anchor="middle" font-size="12">0 / 0</text>
  <text class="muted" x="270" y="781" text-anchor="middle" font-size="12">0 / 0</text>
  <text class="muted" x="410" y="754" text-anchor="middle" font-size="12">not replayed</text>
  <text class="muted" x="550" y="754" text-anchor="middle" font-size="12">not replayed</text>
  <text class="muted" x="690" y="781" text-anchor="middle" font-size="12">0 / 0</text>
  <text class="muted" x="830" y="781" text-anchor="middle" font-size="12">0 / 0</text>

  <path class="bar-contact" d="M951 790 L951 725 Q951 721 955 721 L965 721 Q969 721 969 725 L969 790 Z"/>
  <path class="bar-lift" d="M971 790 L971 786 Q971 782 975 782 L985 782 Q989 782 989 786 L989 790 Z"/>
  <text class="text2" x="960" y="714" text-anchor="middle" font-size="12" font-weight="600">9/11</text>
  <text class="muted" x="994" y="778" font-size="12">1/11</text>

  <path class="bar-contact" d="M1091 790 L1091 710 Q1091 706 1095 706 L1105 706 Q1109 706 1109 710 L1109 790 Z"/>
  <text class="text2" x="1100" y="699" text-anchor="middle" font-size="12" font-weight="600">2/2</text>
  <text class="muted" x="1114" y="778" font-size="12">0/2</text>

  <!-- Panel C: path to GR00T -->
  <text class="text" x="50" y="838" font-size="16" font-weight="600">Path to normalized GR00T training data</text>
  <text class="text2" x="470" y="838" font-size="13">planned lane — kinematic-only admission grants no training or promotion authority yet</text>

  <rect class="flow-done" x="72" y="856" width="184" height="80" rx="10"/>
  <text class="text" x="164" y="880" text-anchor="middle" font-size="13" font-weight="600">Freeze workcell candidate</text>
  <text class="text2" x="164" y="898" text-anchor="middle" font-size="12">17.4 train · 23.5 held-out mm</text>
  <text class="muted" x="164" y="922" text-anchor="middle" font-size="10.5" letter-spacing="0.08em">WORKING RECEIPT</text>

  <rect class="flow-done" x="290" y="856" width="184" height="80" rx="10"/>
  <text class="text" x="382" y="880" text-anchor="middle" font-size="13" font-weight="600">Commit receipts + tests</text>
  <text class="text2" x="382" y="898" text-anchor="middle" font-size="12">steps 3–7 now uncommitted</text>
  <text class="muted" x="382" y="922" text-anchor="middle" font-size="10.5" letter-spacing="0.08em">NEXT</text>

  <rect class="flow-plan" x="508" y="856" width="184" height="80" rx="10"/>
  <text class="text" x="600" y="880" text-anchor="middle" font-size="13" font-weight="600">Regenerate B–G episodes</text>
  <text class="text2" x="600" y="898" text-anchor="middle" font-size="12">ranks 1–2, both directions</text>
  <text class="muted" x="600" y="922" text-anchor="middle" font-size="10.5" letter-spacing="0.08em">PLANNED</text>

  <rect class="flow-plan" x="726" y="856" width="184" height="80" rx="10"/>
  <text class="text" x="818" y="880" text-anchor="middle" font-size="13" font-weight="600">Freeze dataset + norm stats</text>
  <text class="text2" x="818" y="898" text-anchor="middle" font-size="12">SHA-bound, per-joint stats</text>
  <text class="muted" x="818" y="922" text-anchor="middle" font-size="10.5" letter-spacing="0.08em">PLANNED</text>

  <rect class="flow-plan" x="944" y="856" width="184" height="80" rx="10"/>
  <text class="text" x="1036" y="880" text-anchor="middle" font-size="13" font-weight="600">GR00T N1.7 fine-tune</text>
  <text class="text2" x="1036" y="898" text-anchor="middle" font-size="12">replaces ×24 single episode</text>
  <text class="muted" x="1036" y="922" text-anchor="middle" font-size="10.5" letter-spacing="0.08em">PLANNED</text>

  <line class="arrow" x1="260" y1="896" x2="284" y2="896"/>
  <path class="arrowhead" d="M284 892 L290 896 L284 900 Z"/>
  <line class="arrow" x1="478" y1="896" x2="502" y2="896"/>
  <path class="arrowhead" d="M502 892 L508 896 L502 900 Z"/>
  <line class="arrow" x1="696" y1="896" x2="720" y2="896"/>
  <path class="arrowhead" d="M720 892 L726 896 L720 900 Z"/>
  <line class="arrow" x1="914" y1="896" x2="938" y2="896"/>
  <path class="arrowhead" d="M938 892 L944 896 L938 900 Z"/>

  <!-- Footer legend -->
  <line class="committed-line" x1="50" y1="972" x2="82" y2="972"/>
  <circle class="committed-point" cx="66" cy="972" r="4.5"/>
  <text class="muted" x="90" y="977" font-size="13">Committed evidence</text>
  <line class="working-line" x1="242" y1="972" x2="274" y2="972"/>
  <circle class="working-point" cx="258" cy="972" r="4.5"/>
  <text class="muted" x="282" y="977" font-size="13">Working receipt (uncommitted)</text>
  <path class="holdout-point" d="M496 965 L503 972 L496 979 L489 972 Z"/>
  <text class="muted" x="511" y="977" font-size="13">Held-out, opened once</text>
  <line class="refline" x1="672" y1="972" x2="704" y2="972"/>
  <text class="muted" x="712" y="977" font-size="13">Admission threshold</text>
  <text class="muted" x="1150" y="977" text-anchor="end" font-size="13">RMS = pinch point vs square centers</text>
</svg>
